<svg width="171" height="36" viewBox="0 0 171 36" fill="none" xmlns="http://www.w3.org/2000/svg">
<g clip-path="url(#clip0_5_23)">
<path fill-rule="evenodd" clip-rule="evenodd" d="M27.8333 21C27.8333 28.0877 22.0877 33.8333 15 33.8333C7.91234 33.8333 2.16666 28.0877 2.16666 21C2.16666 13.9123 7.91234 8.16666 15 8.16666C22.0877 8.16666 27.8333 13.9123 27.8333 21ZM30 21C30 29.2843 23.2843 36 15 36C6.71573 36 0 29.2843 0 21C0 12.7157 6.71573 6 15 6C23.2843 6 30 12.7157 30 21ZM23.2759 14.2759C23.2759 15.1329 22.5812 15.8276 21.7242 15.8276C20.8672 15.8276 20.1725 15.1329 20.1725 14.2759C20.1725 13.4189 20.8672 12.7242 21.7242 12.7242C22.5812 12.7242 23.2759 13.4189 23.2759 14.2759ZM10.4879 22.209C11.1556 24.7009 13.717 26.1797 16.2089 25.512C18.7008 24.8443 20.1796 22.2829 19.5119 19.791C18.8442 17.2991 16.2828 15.8203 13.7909 16.488C11.299 17.1557 9.82015 19.7171 10.4879 22.209ZM8.39503 22.7698C9.37244 26.4175 13.1219 28.5823 16.7696 27.6049C20.4174 26.6274 22.5821 22.878 21.6047 19.2302C20.6273 15.5825 16.8779 13.4177 13.2301 14.3952C9.58236 15.3726 7.41762 19.122 8.39503 22.7698Z" fill="url(#paint0_linear_5_23)"/>
<path d="M43.814 30.494C42.1327 30.494 40.7113 30.2253 39.55 29.688C38.406 29.1507 37.5307 28.414 36.924 27.478C36.3173 26.5247 36.014 25.45 36.014 24.254H39.628C39.628 24.7567 39.7667 25.2507 40.044 25.736C40.3213 26.204 40.7633 26.5853 41.37 26.88C41.994 27.1747 42.8087 27.322 43.814 27.322C44.7153 27.322 45.4693 27.192 46.076 26.932C46.6827 26.672 47.1333 26.334 47.428 25.918C47.7227 25.4847 47.87 24.9993 47.87 24.462C47.87 23.786 47.584 23.2487 47.012 22.85C46.44 22.434 45.556 22.174 44.36 22.07L42.696 21.94C40.876 21.784 39.42 21.2207 38.328 20.25C37.2533 19.262 36.716 17.962 36.716 16.35C36.716 15.1367 37.002 14.0967 37.574 13.23C38.146 12.346 38.9433 11.67 39.966 11.202C41.006 10.7167 42.2193 10.474 43.606 10.474C45.0447 10.474 46.284 10.7253 47.324 11.228C48.364 11.7307 49.17 12.4413 49.742 13.36C50.314 14.2613 50.6 15.3273 50.6 16.558H46.986C46.986 16.038 46.856 15.5613 46.596 15.128C46.3533 14.6773 45.9807 14.322 45.478 14.062C44.9927 13.7847 44.3687 13.646 43.606 13.646C42.878 13.646 42.2713 13.7673 41.786 14.01C41.3007 14.2527 40.9367 14.582 40.694 14.998C40.4513 15.414 40.33 15.8647 40.33 16.35C40.33 16.9393 40.5467 17.4593 40.98 17.91C41.4133 18.3433 42.098 18.5947 43.034 18.664L44.698 18.82C46.05 18.924 47.2373 19.21 48.26 19.678C49.2827 20.146 50.0713 20.7787 50.626 21.576C51.198 22.3733 51.484 23.3353 51.484 24.462C51.484 25.658 51.172 26.7153 50.548 27.634C49.924 28.5353 49.0313 29.2373 47.87 29.74C46.726 30.2427 45.374 30.494 43.814 30.494ZM54.0535 30V15.882H56.9135V21.94H56.6535C56.6535 20.5013 56.8442 19.3053 57.2255 18.352C57.6069 17.3813 58.1702 16.6533 58.9155 16.168C59.6782 15.6827 60.6229 15.44 61.7495 15.44H61.9055C63.5869 15.44 64.8609 15.986 65.7275 17.078C66.5942 18.1527 67.0275 19.7647 67.0275 21.914V30H63.4135V21.602C63.4135 20.7353 63.1622 20.0333 62.6595 19.496C62.1742 18.9587 61.4982 18.69 60.6315 18.69C59.7475 18.69 59.0282 18.9673 58.4735 19.522C57.9362 20.0593 57.6675 20.7873 57.6675 21.706V30H54.0535ZM77.1789 30.494C75.9309 30.494 74.8302 30.2947 73.8769 29.896C72.9236 29.4973 72.1176 28.96 71.4589 28.284C70.8002 27.5907 70.2976 26.8107 69.9509 25.944C69.6216 25.0773 69.4569 24.176 69.4569 23.24V22.694C69.4569 21.7233 69.6302 20.8047 69.9769 19.938C70.3409 19.054 70.8522 18.274 71.5109 17.598C72.1869 16.9047 73.0016 16.3673 73.9549 15.986C74.9082 15.5873 75.9829 15.388 77.1789 15.388C78.3749 15.388 79.4496 15.5873 80.4029 15.986C81.3562 16.3673 82.1622 16.9047 82.8209 17.598C83.4969 18.274 84.0082 19.054 84.3549 19.938C84.7016 20.8047 84.8749 21.7233 84.8749 22.694V23.24C84.8749 24.176 84.7016 25.0773 84.3549 25.944C84.0256 26.8107 83.5316 27.5907 82.8729 28.284C82.2142 28.96 81.4082 29.4973 80.4549 29.896C79.5016 30.2947 78.4096 30.494 77.1789 30.494ZM77.1789 27.4C78.0629 27.4 78.8082 27.2093 79.4149 26.828C80.0216 26.4293 80.4809 25.9007 80.7929 25.242C81.1049 24.566 81.2609 23.8033 81.2609 22.954C81.2609 22.0873 81.0962 21.3247 80.7669 20.666C80.4549 19.99 79.9869 19.4613 79.3629 19.08C78.7562 18.6813 78.0282 18.482 77.1789 18.482C76.3296 18.482 75.5929 18.6813 74.9689 19.08C74.3622 19.4613 73.8942 19.99 73.5649 20.666C73.2356 21.3247 73.0709 22.0873 73.0709 22.954C73.0709 23.8033 73.2269 24.566 73.5389 25.242C73.8682 25.9007 74.3362 26.4293 74.9429 26.828C75.5496 27.2093 76.2949 27.4 77.1789 27.4ZM94.3054 30.494C93.0574 30.494 91.9567 30.2947 91.0034 29.896C90.0501 29.4973 89.2441 28.96 88.5854 28.284C87.9267 27.5907 87.4241 26.8107 87.0774 25.944C86.7481 25.0773 86.5834 24.176 86.5834 23.24V22.694C86.5834 21.7233 86.7567 20.8047 87.1034 19.938C87.4674 19.054 87.9787 18.274 88.6374 17.598C89.3134 16.9047 90.1281 16.3673 91.0814 15.986C92.0347 15.5873 93.1094 15.388 94.3054 15.388C95.5014 15.388 96.5761 15.5873 97.5294 15.986C98.4827 16.3673 99.2887 16.9047 99.9474 17.598C100.623 18.274 101.135 19.054 101.481 19.938C101.828 20.8047 102.001 21.7233 102.001 22.694V23.24C102.001 24.176 101.828 25.0773 101.481 25.944C101.152 26.8107 100.658 27.5907 99.9994 28.284C99.3407 28.96 98.5347 29.4973 97.5814 29.896C96.6281 30.2947 95.5361 30.494 94.3054 30.494ZM94.3054 27.4C95.1894 27.4 95.9347 27.2093 96.5414 26.828C97.1481 26.4293 97.6074 25.9007 97.9194 25.242C98.2314 24.566 98.3874 23.8033 98.3874 22.954C98.3874 22.0873 98.2227 21.3247 97.8934 20.666C97.5814 19.99 97.1134 19.4613 96.4894 19.08C95.8827 18.6813 95.1547 18.482 94.3054 18.482C93.4561 18.482 92.7194 18.6813 92.0954 19.08C91.4887 19.4613 91.0207 19.99 90.6914 20.666C90.3621 21.3247 90.1974 22.0873 90.1974 22.954C90.1974 23.8033 90.3534 24.566 90.6654 25.242C90.9947 25.9007 91.4627 26.4293 92.0694 26.828C92.6761 27.2093 93.4214 27.4 94.3054 27.4ZM104.646 35.2V15.882H107.506V21.966L107.064 21.94C107.133 20.5013 107.428 19.2967 107.948 18.326C108.485 17.3553 109.196 16.636 110.08 16.168C110.964 15.6827 111.952 15.44 113.044 15.44C114.049 15.44 114.951 15.622 115.748 15.986C116.563 16.35 117.256 16.8613 117.828 17.52C118.417 18.1787 118.868 18.95 119.18 19.834C119.492 20.7007 119.648 21.6367 119.648 22.642V23.188C119.648 24.2107 119.492 25.164 119.18 26.048C118.885 26.9147 118.443 27.686 117.854 28.362C117.282 29.0207 116.589 29.5407 115.774 29.922C114.959 30.286 114.049 30.468 113.044 30.468C111.987 30.468 111.016 30.2513 110.132 29.818C109.265 29.3673 108.563 28.6827 108.026 27.764C107.489 26.828 107.185 25.6233 107.116 24.15L108.26 25.892V35.2H104.646ZM112.134 27.426C112.914 27.426 113.59 27.2353 114.162 26.854C114.751 26.4727 115.211 25.944 115.54 25.268C115.869 24.5747 116.034 23.7947 116.034 22.928C116.034 22.0267 115.869 21.2467 115.54 20.588C115.211 19.9293 114.751 19.418 114.162 19.054C113.59 18.6727 112.914 18.482 112.134 18.482C111.423 18.482 110.765 18.638 110.158 18.95C109.569 19.262 109.083 19.7213 108.702 20.328C108.338 20.9347 108.156 21.6627 108.156 22.512V23.552C108.156 24.3667 108.347 25.06 108.728 25.632C109.109 26.204 109.603 26.646 110.21 26.958C110.817 27.27 111.458 27.426 112.134 27.426ZM121.585 35.564V32.47H124.237C124.74 32.47 125.156 32.4007 125.485 32.262C125.832 32.1407 126.118 31.9327 126.343 31.638C126.568 31.3607 126.742 30.9707 126.863 30.468L130.659 15.882H134.117L129.931 31.248C129.654 32.3053 129.264 33.146 128.761 33.77C128.258 34.4113 127.608 34.8707 126.811 35.148C126.031 35.4253 125.06 35.564 123.899 35.564H121.585ZM125.979 29.688V26.828H128.995V29.688H125.979ZM124.757 29.688L120.181 15.882H123.821L128.163 29.688H124.757Z" fill="white"/>
</g>
<defs>
<linearGradient id="paint0_linear_5_23" x1="15" y1="6" x2="15" y2="36" gradientUnits="userSpaceOnUse">
<stop stop-color="#877EFF"/>
<stop offset="0.461458" stop-color="#685DFF"/>
<stop offset="1" stop-color="#3121FF"/>
</linearGradient>
<clipPath id="clip0_5_23">
<rect width="171" height="36" fill="white"/>
</clipPath>
</defs>
</svg>
